<?xml version="1.0" encoding="UTF-8"?><svg id="Laag_2" xmlns="http://www.w3.org/2000/svg" viewBox="0 0 12.88 13.72"><defs><style>.cls-1{fill:#FF864B;}</style></defs><g id="Laag_1-2"><path class="cls-1" d="M10.27,6.86c0,.38-.19,.77-.57,.99l-5.39,3.11c-.76,.44-1.71-.11-1.71-.99V3.75c0-.88,.95-1.43,1.71-.99l5.39,3.11c.38,.22,.57,.6,.57,.99m2.61,0c0-.64-.16-1.26-.47-1.82-.33-.59-.81-1.08-1.4-1.43L5.62,.5C5.03,.16,4.36-.01,3.68,0c-.63,.01-1.26,.18-1.81,.5-.55,.32-1.01,.77-1.34,1.32C.18,2.4,0,3.06,0,3.75v6.22c0,.68,.18,1.35,.53,1.93,.33,.54,.79,1,1.34,1.32,.55,.32,1.18,.49,1.81,.5,.68,.01,1.35-.16,1.94-.5l5.39-3.11c.59-.34,1.08-.83,1.4-1.43,.31-.55,.47-1.18,.47-1.82h0Z"/></g></svg>