<?xml version="1.0" encoding="UTF-8"?><svg id="Laag_2" xmlns="http://www.w3.org/2000/svg" viewBox="0 0 16.12 15.13"><defs><style>.cls-1{fill:#fff;}</style></defs><g id="Laag_1-2"><path class="cls-1" d="M8.06,3.06c.45,0,.9,.22,1.16,.67l3.66,6.33c.52,.89-.13,2.01-1.16,2.01H4.4c-1.03,0-1.68-1.12-1.16-2.01L6.9,3.73c.26-.45,.71-.67,1.16-.67m0-3.06c-.75,0-1.49,.19-2.14,.55-.69,.39-1.27,.96-1.67,1.65L.59,8.53C.19,9.23-.01,10.01,0,10.81c.01,.74,.22,1.48,.59,2.13,.37,.65,.91,1.19,1.55,1.57,.68,.41,1.46,.63,2.27,.63h7.31c.8,0,1.58-.22,2.27-.63,.64-.38,1.17-.93,1.55-1.57,.37-.65,.58-1.38,.59-2.13,.01-.79-.19-1.58-.59-2.27l-3.66-6.33c-.4-.69-.98-1.26-1.67-1.65C9.54,.19,8.8,0,8.06,0h0Z"/></g></svg>